<?xml version="1.0" standalone="no"?>
<!DOCTYPE svg PUBLIC "-//W3C//DTD SVG 20010904//EN"
 "http://www.w3.org/TR/2001/REC-SVG-20010904/DTD/svg10.dtd">
<svg version="1.0" xmlns="http://www.w3.org/2000/svg"
 width="2048.000000pt" height="2048.000000pt" viewBox="0 0 2048.000000 2048.000000"
 preserveAspectRatio="xMidYMid meet">

<g transform="translate(0.000000,2048.000000) scale(0.100000,-0.100000)"
fill="#000000" stroke="none">
<path d="M9805 20470 c-223 -10 -581 -38 -735 -59 -93 -13 -219 -29 -330 -42
-47 -6 -125 -19 -175 -29 -88 -18 -119 -23 -315 -55 -52 -9 -115 -22 -140 -29
-25 -8 -67 -18 -95 -24 -105 -21 -361 -83 -462 -112 -159 -45 -210 -60 -268
-75 -33 -9 -74 -23 -92 -31 -17 -8 -39 -14 -50 -14 -10 -1 -36 -9 -58 -20 -22
-11 -48 -19 -58 -20 -10 0 -31 -7 -46 -15 -16 -8 -46 -19 -67 -24 -44 -12
-152 -49 -234 -81 -30 -12 -73 -28 -95 -36 -22 -8 -52 -21 -67 -29 -14 -8 -32
-15 -40 -15 -7 0 -30 -9 -51 -20 -20 -11 -43 -20 -49 -20 -7 0 -25 -6 -40 -14
-14 -8 -43 -19 -65 -26 -21 -7 -42 -16 -48 -20 -5 -4 -44 -22 -85 -40 -41 -18
-109 -48 -150 -67 -41 -19 -93 -43 -115 -53 -185 -83 -615 -313 -873 -467 -20
-12 -44 -25 -52 -29 -8 -4 -26 -15 -40 -24 -53 -36 -145 -95 -155 -100 -6 -3
-37 -23 -70 -44 -150 -98 -201 -132 -210 -139 -10 -8 -167 -120 -220 -157
-161 -112 -532 -402 -615 -480 -15 -14 -51 -46 -81 -71 -30 -25 -85 -73 -124
-106 -190 -162 -676 -648 -838 -838 -33 -38 -81 -94 -106 -124 -25 -30 -57
-66 -71 -81 -78 -83 -368 -454 -480 -615 -37 -53 -149 -210 -157 -220 -7 -9
-41 -60 -139 -210 -21 -33 -41 -64 -44 -70 -5 -10 -64 -102 -100 -155 -9 -14
-20 -32 -24 -40 -4 -8 -17 -32 -29 -52 -154 -258 -384 -688 -467 -873 -10 -22
-34 -74 -53 -115 -19 -41 -49 -109 -67 -150 -18 -41 -36 -79 -40 -85 -4 -5
-13 -27 -20 -48 -7 -22 -18 -51 -26 -65 -8 -15 -14 -33 -14 -40 0 -6 -9 -29
-20 -49 -11 -21 -20 -44 -20 -51 0 -8 -7 -26 -15 -40 -8 -15 -21 -45 -29 -67
-8 -22 -24 -65 -36 -95 -32 -82 -69 -190 -81 -234 -5 -21 -16 -51 -24 -67 -8
-15 -15 -36 -15 -46 -1 -10 -9 -36 -20 -58 -11 -22 -19 -48 -20 -58 0 -11 -6
-33 -14 -50 -8 -18 -22 -59 -31 -92 -16 -61 -39 -143 -76 -270 -28 -98 -90
-355 -111 -460 -6 -27 -16 -70 -24 -95 -7 -25 -20 -88 -29 -140 -32 -196 -37
-227 -55 -315 -10 -49 -23 -128 -29 -175 -14 -115 -30 -239 -42 -330 -20 -147
-47 -485 -59 -750 -17 -345 -9 -787 19 -1165 21 -271 29 -349 62 -595 6 -41
15 -113 20 -160 6 -47 19 -125 29 -175 18 -88 24 -124 55 -315 9 -52 23 -114
31 -138 7 -23 14 -52 14 -64 0 -12 8 -54 19 -92 10 -39 28 -116 41 -171 21
-94 30 -129 81 -305 50 -178 62 -218 76 -260 8 -25 18 -61 23 -81 5 -19 16
-49 25 -65 8 -16 15 -38 15 -49 0 -11 7 -33 15 -49 9 -16 20 -46 25 -65 11
-42 49 -151 80 -231 12 -30 28 -73 36 -95 8 -22 21 -52 29 -67 8 -14 15 -32
15 -40 0 -7 9 -30 20 -51 11 -20 20 -43 20 -49 0 -7 6 -25 14 -40 8 -14 19
-43 26 -65 7 -21 16 -42 20 -48 4 -5 22 -44 40 -85 18 -41 46 -104 62 -140 17
-36 41 -90 55 -120 96 -209 313 -615 470 -878 12 -20 25 -44 29 -52 4 -8 15
-26 24 -40 36 -53 95 -145 100 -155 3 -6 23 -37 44 -70 98 -150 132 -201 139
-210 8 -10 120 -167 157 -220 112 -161 402 -532 480 -615 14 -15 46 -51 71
-81 25 -30 73 -85 106 -124 162 -190 648 -676 838 -838 39 -33 94 -81 124
-106 30 -25 66 -57 81 -71 35 -33 73 -64 285 -232 192 -152 224 -176 350 -264
44 -30 105 -73 135 -95 50 -37 113 -79 275 -185 33 -21 64 -41 70 -44 10 -5
102 -64 155 -100 14 -9 32 -20 40 -24 8 -4 32 -17 52 -29 258 -154 688 -384
873 -467 22 -10 74 -34 115 -53 41 -19 109 -49 150 -67 41 -18 80 -36 85 -40
6 -4 27 -13 48 -20 22 -7 51 -18 65 -26 15 -8 33 -14 40 -14 6 0 29 -9 49 -20
21 -11 44 -20 51 -20 8 0 26 -7 40 -15 15 -8 45 -21 67 -29 22 -8 65 -24 95
-36 82 -32 190 -69 234 -81 21 -5 51 -16 67 -24 15 -8 36 -15 46 -15 10 -1 36
-9 58 -20 22 -11 48 -19 58 -20 11 0 33 -6 50 -14 18 -8 59 -22 92 -31 58 -15
109 -30 268 -75 101 -29 357 -91 462 -112 28 -6 70 -16 95 -24 25 -7 88 -20
140 -29 196 -32 227 -37 315 -55 50 -10 128 -23 175 -29 115 -14 239 -30 330
-42 147 -20 485 -47 750 -59 345 -17 787 -9 1165 19 271 21 349 29 595 62 41
6 113 15 160 20 47 6 126 19 175 29 88 18 119 23 315 55 52 9 115 22 140 29
25 8 68 18 95 24 105 21 361 83 462 112 159 45 210 60 268 75 33 9 74 23 92
31 17 8 39 14 50 14 10 1 36 9 58 20 22 11 48 19 58 20 10 0 31 7 46 15 16 8
46 19 67 24 44 12 152 49 234 81 30 12 73 28 95 36 22 8 52 21 67 29 14 8 32
15 40 15 7 0 30 9 51 20 20 11 43 20 49 20 7 0 25 6 40 14 14 8 43 19 65 26
21 7 43 16 48 20 6 4 44 22 85 40 41 18 109 48 150 67 41 19 93 43 115 53 185
83 615 313 873 467 20 12 44 25 52 29 8 4 26 15 40 24 53 36 145 95 155 100 6
3 37 23 70 44 150 98 201 132 210 139 10 8 167 120 220 157 161 112 532 402
615 480 15 14 51 46 81 71 30 25 86 73 124 106 190 162 676 648 838 838 33 39
81 94 106 124 25 30 57 66 71 81 78 83 368 454 480 615 37 53 149 210 157 220
7 9 41 60 139 210 21 33 41 64 44 70 5 10 64 102 100 155 9 14 20 32 24 40 4
8 17 32 29 52 154 258 384 688 467 873 10 22 34 74 53 115 19 41 49 109 67
150 18 41 36 80 40 85 4 6 13 27 20 48 7 22 18 51 26 65 8 15 14 33 14 40 0 6
9 29 20 49 11 21 20 44 20 51 0 8 7 26 15 40 8 15 21 45 29 67 8 22 24 65 36
95 32 82 69 190 81 234 5 21 16 51 24 67 8 15 15 36 15 46 1 10 9 36 20 58 11
22 19 48 20 58 0 11 6 33 14 50 8 18 22 59 31 92 8 33 24 89 34 125 54 185 64
221 80 290 32 131 63 263 73 315 6 28 16 70 24 95 7 25 20 88 29 140 32 196
37 227 55 315 10 50 23 128 29 175 14 115 30 239 42 330 20 147 47 485 59 750
17 345 9 787 -19 1165 -21 271 -29 349 -62 595 -6 41 -15 113 -20 160 -6 47
-19 126 -29 175 -18 88 -23 119 -55 315 -9 52 -22 115 -29 140 -8 25 -18 68
-24 95 -21 105 -83 362 -111 460 -37 127 -60 209 -76 270 -9 33 -23 74 -31 92
-8 17 -14 39 -14 50 -1 10 -9 36 -20 58 -11 22 -19 48 -20 58 0 10 -7 31 -15
46 -8 16 -19 46 -24 67 -12 44 -49 152 -81 234 -12 30 -28 73 -36 95 -8 22
-21 52 -29 67 -8 14 -15 32 -15 40 0 7 -9 30 -20 51 -11 20 -20 43 -20 49 0 7
-6 25 -14 40 -8 14 -19 43 -26 65 -7 21 -16 43 -20 48 -4 6 -22 44 -40 85 -18
41 -46 104 -62 140 -17 36 -41 90 -55 120 -96 209 -313 615 -470 878 -12 20
-25 44 -29 52 -4 8 -15 26 -24 40 -36 53 -95 145 -100 155 -3 6 -23 37 -44 70
-98 150 -132 201 -139 210 -8 10 -120 167 -157 220 -112 161 -402 532 -480
615 -14 15 -46 51 -71 81 -25 30 -73 86 -106 124 -162 190 -648 676 -838 838
-38 33 -94 81 -124 106 -30 25 -66 57 -81 71 -83 78 -454 368 -615 480 -53 37
-210 149 -220 157 -9 7 -60 41 -210 139 -33 21 -64 41 -70 44 -10 5 -102 64
-155 100 -14 9 -32 20 -40 24 -8 4 -32 17 -52 29 -258 154 -688 384 -873 467
-22 10 -74 34 -115 53 -41 19 -109 49 -150 67 -41 18 -79 36 -85 40 -5 4 -27
13 -48 20 -22 7 -51 18 -65 26 -15 8 -33 14 -40 14 -6 0 -29 9 -49 20 -21 11
-44 20 -51 20 -8 0 -26 7 -40 15 -15 8 -45 21 -67 29 -22 8 -65 24 -95 36 -82
32 -190 69 -234 81 -21 5 -51 16 -67 24 -15 8 -36 15 -46 15 -10 1 -36 9 -58
20 -22 11 -48 19 -58 20 -11 0 -33 6 -50 14 -18 8 -59 22 -92 31 -58 15 -109
30 -268 75 -101 29 -357 91 -462 112 -27 6 -70 16 -95 24 -25 7 -88 20 -140
29 -196 32 -227 37 -315 55 -49 10 -128 23 -175 29 -115 14 -239 30 -330 42
-401 54 -1109 80 -1605 59z m1020 -1099 c327 -24 392 -31 695 -72 139 -19 190
-27 310 -49 30 -6 109 -20 175 -31 66 -12 149 -29 185 -39 36 -10 90 -22 120
-29 83 -17 206 -47 288 -70 110 -31 205 -58 280 -80 37 -11 92 -27 122 -35 30
-9 69 -23 87 -31 17 -8 38 -15 48 -15 9 0 29 -7 44 -15 16 -8 46 -19 67 -24
22 -5 71 -22 109 -36 39 -15 88 -33 110 -41 22 -8 54 -21 72 -29 17 -8 35 -15
40 -15 4 -1 26 -9 48 -20 22 -11 46 -19 53 -20 6 0 29 -9 49 -20 21 -11 44
-20 51 -20 7 0 30 -9 50 -20 20 -11 69 -34 107 -51 39 -17 95 -42 125 -56 86
-39 490 -241 545 -273 28 -16 64 -36 80 -44 17 -9 48 -27 70 -40 22 -14 54
-32 70 -40 17 -9 48 -27 70 -41 22 -13 49 -28 61 -34 11 -5 58 -34 103 -65 45
-31 83 -56 86 -56 2 0 36 -22 77 -49 40 -26 91 -60 113 -74 22 -14 65 -44 95
-66 30 -22 86 -61 125 -88 152 -104 555 -421 656 -515 19 -18 82 -73 140 -123
134 -116 578 -560 694 -694 50 -58 105 -121 123 -140 94 -101 411 -504 515
-656 27 -39 66 -95 88 -125 22 -30 52 -73 66 -95 14 -22 48 -73 74 -113 27
-41 49 -75 49 -77 0 -3 25 -41 56 -86 31 -45 60 -92 65 -103 6 -12 21 -39 34
-61 14 -22 32 -53 41 -70 8 -16 26 -48 40 -70 13 -22 31 -53 40 -70 8 -16 28
-52 44 -80 32 -55 234 -459 273 -545 14 -30 39 -86 56 -125 17 -38 40 -87 51
-107 11 -20 20 -43 20 -50 0 -7 9 -30 20 -51 11 -20 20 -43 20 -49 1 -7 9 -31
20 -53 11 -22 19 -44 20 -48 0 -5 7 -23 15 -40 8 -18 21 -50 29 -72 8 -22 26
-71 41 -110 14 -38 31 -87 36 -109 5 -21 16 -51 24 -67 8 -15 15 -35 15 -44 0
-10 7 -31 15 -48 8 -18 22 -57 31 -87 8 -30 25 -86 36 -125 48 -168 59 -204
79 -275 11 -41 25 -95 31 -120 5 -25 18 -76 29 -115 10 -38 19 -80 19 -92 0
-12 7 -43 16 -69 14 -43 24 -92 54 -269 7 -38 20 -110 30 -160 10 -49 23 -126
28 -170 6 -44 16 -120 22 -170 6 -49 18 -135 26 -190 8 -55 18 -177 24 -270 5
-94 14 -246 21 -339 23 -339 -2 -1059 -51 -1446 -33 -257 -53 -395 -80 -540
-6 -30 -20 -109 -31 -175 -12 -66 -30 -149 -40 -184 -11 -35 -19 -73 -19 -84
0 -17 -8 -54 -50 -217 -6 -25 -20 -76 -31 -115 -11 -38 -28 -101 -39 -140 -10
-38 -28 -101 -40 -140 -12 -38 -28 -92 -36 -120 -8 -27 -21 -64 -29 -82 -8
-17 -15 -38 -15 -48 0 -9 -7 -29 -15 -44 -8 -16 -19 -46 -24 -67 -5 -22 -22
-70 -36 -109 -15 -38 -33 -88 -41 -110 -8 -22 -21 -54 -29 -72 -8 -17 -15 -35
-15 -40 -1 -4 -9 -26 -20 -48 -11 -22 -19 -46 -20 -53 0 -6 -9 -29 -20 -49
-11 -21 -20 -44 -20 -51 0 -7 -9 -30 -20 -50 -11 -20 -34 -68 -51 -107 -17
-38 -42 -95 -56 -125 -39 -86 -241 -490 -273 -545 -16 -27 -36 -63 -44 -80 -9
-16 -27 -48 -40 -70 -14 -22 -32 -53 -40 -70 -9 -16 -27 -48 -41 -70 -13 -22
-28 -49 -34 -61 -5 -11 -34 -58 -65 -103 -31 -45 -56 -83 -56 -85 0 -12 -198
-305 -258 -381 -4 -5 -24 -35 -44 -65 -21 -30 -51 -75 -68 -99 -40 -56 -378
-475 -422 -522 -18 -19 -73 -82 -123 -140 -116 -134 -560 -578 -694 -694 -58
-50 -121 -105 -140 -123 -101 -94 -504 -411 -656 -515 -39 -27 -95 -66 -125
-88 -30 -22 -73 -52 -95 -66 -22 -14 -73 -48 -113 -74 -41 -27 -75 -49 -77
-49 -3 0 -41 -25 -86 -56 -45 -31 -92 -60 -103 -65 -12 -6 -39 -21 -61 -34
-22 -14 -53 -32 -70 -41 -16 -8 -48 -26 -70 -40 -22 -13 -53 -31 -70 -40 -16
-8 -52 -28 -80 -44 -55 -32 -459 -234 -545 -273 -30 -14 -86 -39 -125 -56 -38
-17 -87 -40 -107 -51 -20 -11 -43 -20 -50 -20 -7 0 -30 -9 -51 -20 -20 -11
-43 -20 -49 -20 -7 -1 -31 -9 -53 -20 -22 -11 -44 -19 -48 -20 -5 0 -23 -7
-40 -15 -18 -8 -50 -21 -72 -29 -22 -8 -71 -26 -110 -41 -38 -14 -87 -31 -109
-36 -21 -5 -51 -16 -67 -24 -15 -8 -35 -15 -44 -15 -10 0 -31 -7 -48 -15 -18
-8 -57 -22 -87 -31 -30 -8 -86 -25 -125 -36 -72 -21 -158 -45 -280 -80 -78
-22 -202 -52 -285 -69 -30 -7 -84 -19 -120 -29 -36 -10 -119 -27 -185 -39 -66
-11 -145 -25 -175 -31 -120 -22 -171 -30 -310 -49 -484 -66 -782 -86 -1280
-86 -498 0 -796 20 -1280 86 -139 19 -190 27 -310 49 -30 6 -109 20 -175 31
-66 12 -149 29 -185 39 -36 10 -90 22 -120 29 -83 17 -206 47 -290 70 -108 31
-206 59 -280 81 -36 10 -90 26 -120 34 -30 9 -69 23 -87 31 -17 8 -38 15 -48
15 -9 0 -29 7 -44 15 -16 8 -46 19 -67 24 -22 5 -70 22 -109 36 -38 15 -88 33
-110 41 -22 8 -54 21 -72 29 -17 8 -35 15 -40 15 -4 1 -26 9 -48 20 -22 11
-46 19 -53 20 -6 0 -29 9 -49 20 -21 11 -44 20 -51 20 -7 0 -30 9 -50 20 -20
11 -68 34 -107 51 -38 17 -95 42 -125 56 -86 39 -490 241 -545 273 -27 16 -63
36 -80 44 -16 9 -48 27 -70 40 -22 14 -53 32 -70 40 -16 9 -48 27 -70 41 -22
13 -49 28 -61 34 -11 5 -58 34 -103 65 -45 31 -83 56 -86 56 -2 0 -36 22 -77
49 -40 26 -91 60 -113 74 -22 14 -65 44 -95 66 -30 22 -86 61 -125 88 -152
104 -555 421 -656 515 -19 18 -82 73 -140 123 -134 116 -578 560 -694 694 -50
58 -105 121 -123 140 -94 101 -411 504 -515 656 -27 39 -66 95 -88 125 -44 60
-56 78 -204 310 -12 19 -39 62 -61 95 -38 59 -57 92 -88 150 -9 17 -25 44 -36
60 -11 17 -27 44 -36 60 -8 17 -26 48 -39 70 -13 22 -33 56 -43 75 -28 51
-244 481 -264 526 -77 173 -101 224 -118 256 -11 20 -20 43 -20 50 0 7 -9 30
-20 51 -11 20 -20 43 -20 49 -1 7 -9 31 -20 53 -11 22 -19 44 -20 48 0 5 -7
23 -15 40 -8 18 -21 50 -29 72 -8 22 -26 72 -41 110 -14 39 -31 87 -36 109 -5
21 -16 51 -24 67 -8 15 -15 35 -15 44 0 10 -7 31 -15 48 -8 18 -22 57 -31 87
-8 30 -24 84 -34 120 -22 74 -50 172 -81 280 -23 84 -53 207 -70 290 -7 30
-19 84 -29 120 -10 36 -27 119 -39 185 -11 66 -25 145 -31 175 -27 145 -47
283 -80 540 -49 387 -74 1107 -51 1446 7 93 16 245 21 339 6 93 16 215 24 270
9 55 19 136 25 180 24 197 34 266 51 350 10 50 23 122 30 160 30 177 40 226
54 269 9 26 16 57 16 70 0 14 9 53 20 88 11 34 20 72 20 84 0 11 9 52 20 90
20 65 30 103 80 277 40 138 63 212 76 245 8 18 18 50 24 70 5 20 29 93 54 162
24 69 51 145 60 170 9 25 23 57 31 72 8 14 15 32 15 40 1 7 9 31 20 53 11 22
19 46 20 53 0 6 9 29 20 49 11 21 20 44 20 51 0 7 9 30 20 50 17 32 41 83 118
256 20 45 236 475 264 526 10 19 30 53 43 75 13 22 31 54 39 70 9 17 25 44 36
60 11 17 27 44 36 60 31 58 50 91 88 150 22 33 49 76 61 95 148 232 160 250
204 310 22 30 61 86 88 125 104 152 421 555 515 656 18 19 73 82 123 140 116
134 560 578 694 694 58 50 121 105 140 123 101 94 504 411 656 515 39 27 95
66 125 88 30 22 73 52 95 66 22 14 73 48 113 74 41 27 75 49 77 49 3 0 41 25
86 56 45 31 92 60 103 65 12 6 39 21 61 34 22 14 54 32 70 41 17 8 48 26 70
40 22 13 54 31 70 40 17 8 53 28 80 44 55 32 459 234 545 273 30 14 87 39 125
56 39 17 87 40 107 51 20 11 43 20 50 20 7 0 30 9 51 20 20 11 43 20 49 20 7
1 31 9 53 20 22 11 44 19 48 20 5 0 23 7 40 15 18 8 50 21 72 29 22 8 72 26
110 41 39 14 87 31 109 36 21 5 51 16 67 24 15 8 35 15 44 15 10 0 31 7 48 15
18 8 57 22 87 31 30 8 84 24 120 34 74 22 172 50 280 81 84 23 207 53 290 70
30 7 84 19 120 29 36 10 119 27 185 39 66 11 145 25 175 31 158 30 430 70 472
70 20 0 74 7 121 15 47 8 170 20 274 26 103 5 235 14 293 19 143 11 818 5
1015 -9z"/>
<path d="M8357 16757 c-14 -11 -14 -440 -7 -4232 5 -2321 9 -4941 9 -5822 l1
-1603 40 -25 c21 -13 56 -29 77 -34 21 -6 76 -24 123 -41 47 -17 103 -36 125
-41 21 -6 44 -14 50 -19 6 -5 29 -13 50 -19 22 -5 78 -24 125 -41 47 -17 103
-36 125 -41 21 -6 44 -14 50 -19 6 -5 29 -13 50 -19 22 -5 78 -24 125 -41 47
-17 103 -36 125 -41 21 -6 44 -14 50 -18 5 -4 57 -23 115 -41 58 -18 110 -37
115 -41 6 -4 29 -12 50 -18 22 -5 78 -24 125 -41 47 -17 103 -36 125 -41 21
-6 44 -14 50 -19 6 -5 29 -13 50 -19 22 -5 78 -24 125 -41 47 -17 103 -36 125
-41 21 -6 44 -14 50 -19 6 -5 29 -13 50 -19 22 -5 78 -24 125 -41 47 -17 103
-36 125 -41 21 -6 44 -14 50 -19 6 -5 33 -14 60 -20 38 -9 51 -8 62 2 10 11
15 892 23 4973 5 2728 12 5016 16 5085 4 91 11 136 25 167 10 23 19 51 19 62
0 11 5 23 10 26 6 4 19 23 29 43 31 60 78 102 155 138 43 20 67 24 154 24 107
0 107 0 232 -58 68 -31 196 -136 259 -211 53 -65 109 -175 140 -276 l21 -70 0
-2181 0 -2180 28 -26 c15 -14 59 -38 97 -52 39 -15 89 -36 113 -46 23 -11 48
-20 55 -20 6 0 23 -6 37 -13 14 -7 66 -26 115 -41 50 -16 116 -37 148 -47 31
-11 67 -19 79 -19 12 0 54 -9 92 -19 229 -63 710 -61 881 3 22 8 49 15 60 16
11 0 37 9 58 20 20 11 41 20 47 20 12 0 112 49 160 78 19 12 49 29 65 38 137
75 395 360 485 534 7 14 16 27 20 30 8 7 81 159 113 235 13 33 44 121 67 195
24 74 51 158 61 185 9 28 22 77 28 110 17 101 32 177 47 245 8 36 21 121 29
190 8 69 19 163 25 210 27 231 21 1038 -10 1140 -6 19 -14 74 -19 122 -6 47
-16 108 -25 135 -15 48 -21 73 -56 213 -26 106 -45 169 -63 210 -15 35 -40 96
-78 193 -20 51 -96 208 -124 257 -8 14 -35 63 -62 110 -42 77 -122 192 -239
346 -23 30 -82 98 -130 151 -49 53 -95 104 -102 114 -16 23 -338 305 -386 339
-20 14 -44 31 -54 38 -9 7 -54 39 -99 72 -45 32 -94 66 -110 75 -15 8 -41 24
-58 35 -30 20 -82 50 -139 83 -17 10 -44 26 -61 37 -27 17 -147 79 -325 170
-71 36 -75 37 -235 105 -60 26 -123 53 -140 61 -16 8 -43 18 -60 24 -16 5 -59
20 -95 34 -36 13 -81 30 -100 36 -19 7 -55 20 -80 30 -82 31 -175 60 -195 60
-11 1 -38 9 -60 20 -22 11 -51 20 -65 20 -14 0 -37 6 -52 14 -15 8 -42 17 -60
21 -18 3 -64 15 -103 26 -38 11 -99 29 -135 39 -36 10 -96 28 -135 39 -38 12
-74 21 -80 21 -5 0 -41 9 -80 21 -118 35 -265 76 -420 119 -44 12 -110 30
-147 41 -38 10 -98 28 -135 38 -38 11 -99 29 -138 40 -38 12 -74 21 -80 21 -5
0 -41 9 -80 21 -38 11 -99 29 -135 39 -36 10 -96 28 -135 39 -38 12 -74 21
-80 21 -5 0 -41 9 -80 21 -38 11 -100 29 -137 40 -38 10 -98 28 -135 38 -38
11 -104 29 -148 41 -44 12 -111 30 -150 42 -38 11 -99 28 -135 38 -36 10 -96
28 -135 39 -38 12 -74 21 -80 21 -10 0 -85 21 -210 60 -87 26 -120 31 -138 17z"/>
<path d="M7750 9647 c-19 -5 -87 -27 -151 -48 -63 -22 -122 -39 -130 -39 -8
-1 -32 -9 -54 -20 -22 -11 -46 -19 -53 -20 -8 0 -28 -7 -45 -14 -38 -18 -140
-54 -182 -65 -17 -4 -42 -14 -55 -21 -13 -7 -38 -17 -55 -21 -16 -4 -61 -20
-100 -34 -38 -15 -90 -33 -115 -41 -25 -8 -59 -21 -77 -29 -17 -8 -36 -15 -43
-15 -7 0 -26 -7 -43 -14 -38 -18 -139 -54 -182 -65 -16 -4 -44 -15 -62 -24
-18 -10 -39 -17 -48 -17 -9 0 -33 -9 -55 -20 -22 -11 -47 -20 -57 -20 -10 -1
-36 -9 -58 -20 -22 -11 -47 -20 -55 -20 -8 0 -33 -9 -55 -20 -22 -11 -46 -19
-53 -20 -8 0 -28 -7 -45 -14 -38 -18 -139 -54 -182 -65 -16 -4 -44 -15 -62
-24 -18 -10 -39 -17 -48 -17 -9 0 -30 -7 -48 -17 -18 -9 -45 -20 -62 -24 -43
-11 -144 -47 -182 -65 -17 -7 -36 -14 -43 -14 -7 0 -26 -7 -43 -14 -38 -18
-140 -54 -182 -65 -17 -4 -42 -14 -55 -21 -13 -7 -38 -17 -55 -21 -16 -4 -61
-20 -100 -34 -38 -15 -90 -33 -115 -41 -25 -8 -59 -21 -77 -29 -17 -8 -37 -15
-45 -15 -7 -1 -31 -9 -53 -20 -22 -11 -47 -20 -55 -20 -8 0 -33 -9 -55 -20
-22 -11 -47 -20 -55 -20 -8 0 -33 -9 -55 -20 -22 -11 -47 -20 -55 -20 -8 0
-28 -7 -43 -15 -15 -8 -42 -19 -60 -24 -18 -6 -61 -21 -97 -34 -36 -14 -81
-31 -100 -37 -19 -7 -55 -21 -80 -30 -25 -10 -72 -27 -105 -40 -67 -24 -140
-53 -200 -80 -22 -10 -51 -21 -65 -25 -14 -4 -34 -14 -45 -21 -11 -8 -25 -14
-32 -14 -20 0 -431 -198 -608 -294 -65 -35 -164 -99 -202 -131 -6 -5 -29 -21
-49 -35 -86 -58 -197 -177 -256 -274 -77 -127 -106 -347 -64 -481 20 -62 64
-160 94 -207 107 -167 378 -362 662 -478 30 -12 73 -31 96 -41 23 -11 45 -19
49 -19 4 0 26 -8 49 -19 96 -44 148 -62 351 -121 39 -12 99 -30 135 -40 170
-51 205 -60 223 -60 11 0 54 -9 96 -19 42 -11 119 -28 171 -40 52 -11 115 -26
140 -32 67 -16 118 -27 190 -39 36 -7 90 -16 120 -22 30 -5 96 -18 145 -28
126 -26 198 -39 285 -51 41 -6 127 -19 190 -29 472 -76 1092 -80 1585 -9 39 5
104 14 145 20 241 32 344 48 445 69 50 11 115 22 146 25 30 3 70 15 87 25 l32
20 0 665 0 665 -24 11 c-18 9 -31 7 -64 -10 -23 -12 -47 -21 -54 -21 -7 0 -26
-7 -41 -15 -15 -8 -42 -19 -60 -24 -18 -6 -61 -21 -97 -34 -36 -14 -81 -31
-100 -37 -19 -7 -55 -20 -80 -30 -25 -10 -61 -23 -80 -30 -93 -33 -117 -42
-147 -55 -17 -8 -37 -15 -45 -15 -7 -1 -31 -9 -53 -20 -22 -11 -46 -19 -53
-20 -7 0 -34 -8 -60 -19 -26 -10 -81 -28 -122 -41 -41 -13 -96 -31 -122 -41
-26 -11 -55 -19 -65 -19 -10 -1 -36 -9 -58 -20 -22 -11 -47 -19 -55 -20 -8 0
-67 -18 -130 -40 -63 -22 -126 -40 -140 -40 -14 0 -61 -9 -105 -20 -67 -17
-114 -20 -295 -20 -254 0 -578 15 -664 31 -90 17 -138 36 -207 82 -88 59 -104
84 -104 162 0 87 9 95 209 213 31 17 61 32 67 32 6 0 25 7 42 15 31 13 57 24
157 59 25 9 54 21 65 26 11 5 38 16 60 24 111 40 132 48 162 61 17 8 36 15 43
15 7 0 26 7 43 15 30 13 55 23 160 60 23 9 51 20 62 25 11 5 39 16 63 25 23 8
61 22 85 30 23 9 51 20 62 25 11 5 39 16 63 25 23 8 61 22 85 30 23 9 51 20
62 25 18 9 41 17 135 50 19 7 54 21 78 31 23 11 47 19 53 19 6 0 25 7 42 15
30 13 55 23 160 60 23 9 51 20 62 25 11 5 40 17 65 26 110 39 126 45 145 54
11 5 40 17 65 26 110 39 126 45 145 54 18 9 41 17 135 50 19 7 54 21 78 31 23
11 47 19 53 19 6 0 25 7 42 15 30 13 55 23 160 60 23 9 51 20 62 25 11 5 33
14 48 20 58 21 57 12 57 785 0 438 -4 713 -10 724 -13 25 -29 29 -70 18z"/>
<path d="M13925 9030 c-49 -4 -176 -15 -280 -24 -105 -9 -205 -20 -223 -25
-18 -5 -85 -15 -150 -21 -64 -7 -120 -14 -124 -16 -3 -2 -55 -11 -115 -19 -59
-9 -130 -22 -157 -30 -27 -8 -61 -15 -75 -15 -14 0 -61 -9 -106 -19 -44 -11
-107 -24 -140 -30 -90 -16 -254 -57 -360 -88 -27 -9 -75 -21 -105 -29 -125
-29 -179 -45 -206 -59 -16 -8 -36 -15 -44 -15 -8 0 -33 -9 -55 -20 -22 -11
-47 -20 -55 -20 -8 0 -33 -9 -55 -20 -22 -11 -46 -19 -53 -20 -7 0 -32 -8 -55
-19 -23 -10 -55 -22 -72 -25 -16 -4 -43 -18 -60 -31 l-30 -25 -3 -747 c-1
-412 0 -758 3 -770 7 -29 53 -30 110 -3 22 11 47 20 55 20 8 0 33 9 55 20 22
11 47 20 55 20 8 0 28 7 43 15 15 8 42 19 60 24 18 6 64 22 102 36 74 28 148
55 205 75 19 7 55 20 80 30 25 10 59 22 75 28 73 25 103 36 145 52 25 10 59
22 75 28 73 25 103 36 145 52 42 16 65 24 143 51 17 6 51 20 75 30 23 11 50
19 60 19 9 0 30 7 46 15 16 9 46 20 65 25 20 5 74 23 121 40 47 17 99 35 115
40 17 5 68 23 115 40 90 32 140 49 230 74 30 9 69 23 87 31 17 8 38 15 46 15
8 0 39 8 69 19 29 10 114 38 188 61 74 24 189 60 255 82 121 39 202 63 307 93
32 9 110 20 175 26 65 5 134 15 153 21 49 15 560 23 641 9 160 -26 226 -41
254 -55 17 -9 36 -16 43 -16 21 0 103 -51 134 -84 39 -41 42 -128 5 -181 -33
-48 -131 -135 -153 -135 -4 0 -15 -6 -23 -14 -18 -15 -99 -58 -151 -80 -34
-15 -72 -29 -162 -61 -24 -8 -55 -22 -70 -30 -14 -8 -31 -15 -38 -15 -7 0 -26
-7 -43 -15 -18 -8 -52 -21 -77 -30 -65 -24 -135 -50 -215 -80 -38 -14 -84 -30
-102 -36 -18 -5 -45 -16 -60 -24 -15 -8 -35 -15 -43 -15 -8 0 -33 -9 -55 -20
-22 -11 -47 -20 -55 -20 -8 0 -33 -9 -55 -20 -22 -11 -47 -20 -55 -20 -8 0
-33 -9 -55 -20 -22 -11 -47 -20 -55 -20 -8 0 -33 -9 -55 -20 -22 -11 -47 -20
-55 -20 -8 0 -33 -9 -55 -20 -22 -11 -47 -20 -55 -20 -8 0 -33 -9 -55 -20 -22
-11 -46 -19 -53 -20 -8 0 -28 -7 -45 -15 -30 -13 -60 -25 -147 -55 -19 -7 -54
-21 -78 -31 -23 -11 -49 -19 -57 -19 -8 0 -34 -8 -57 -19 -24 -10 -58 -24 -75
-30 -78 -27 -101 -35 -143 -51 -25 -10 -61 -23 -80 -30 -19 -6 -64 -23 -100
-36 -36 -14 -83 -31 -105 -39 -22 -7 -71 -25 -110 -40 -38 -14 -84 -30 -102
-36 -18 -5 -45 -16 -60 -24 -15 -8 -35 -15 -43 -15 -8 0 -33 -9 -55 -20 -22
-11 -47 -20 -55 -20 -8 0 -33 -9 -55 -20 -22 -11 -47 -20 -55 -20 -8 0 -33 -9
-55 -20 -22 -11 -47 -20 -55 -20 -8 0 -33 -9 -55 -20 -22 -11 -47 -20 -55 -20
-8 0 -33 -9 -55 -20 -22 -11 -47 -20 -55 -20 -8 0 -28 -7 -43 -15 -15 -8 -42
-19 -60 -24 -18 -6 -63 -22 -102 -36 -74 -28 -148 -55 -205 -75 -19 -7 -55
-20 -80 -30 -25 -10 -60 -22 -77 -29 -18 -6 -48 -16 -65 -22 -18 -7 -53 -19
-78 -29 -44 -17 -82 -31 -145 -52 -65 -23 -117 -54 -126 -76 -5 -14 -8 -336
-7 -755 l3 -732 30 1 c30 2 121 32 182 60 17 7 37 14 45 14 7 1 31 9 53 20 22
11 47 20 55 20 8 0 33 9 55 20 22 11 46 19 53 20 8 0 28 7 45 15 18 8 52 21
77 29 25 8 77 26 115 41 39 14 84 30 100 34 17 4 44 15 62 24 18 10 39 17 48
17 9 0 30 7 48 17 18 9 46 20 62 24 43 11 144 47 182 65 17 7 37 14 45 14 7 1
31 9 53 20 22 11 47 20 55 20 8 0 33 9 55 20 22 11 46 19 53 20 8 0 28 7 45
15 18 8 52 21 77 29 25 8 77 26 115 41 39 14 84 30 100 34 17 4 44 15 62 24
18 10 39 17 48 17 9 0 30 7 48 17 18 9 46 20 62 24 17 4 62 20 100 34 39 15
90 33 115 41 25 8 59 21 77 29 17 8 37 15 45 15 7 1 31 9 53 20 22 11 47 20
55 20 8 0 33 9 55 20 22 11 46 19 53 20 8 0 28 7 45 15 18 8 52 21 77 29 57
18 103 34 160 56 25 10 60 22 78 29 17 6 47 16 65 22 17 7 52 19 77 29 57 22
103 38 160 56 25 8 59 21 77 29 17 8 37 15 45 15 7 1 31 9 53 20 22 11 47 20
55 20 8 0 33 9 55 20 22 11 46 19 53 20 8 0 28 7 45 15 18 8 52 21 77 29 25 8
77 26 115 41 39 14 84 30 100 34 17 4 44 15 62 24 18 10 39 17 48 17 9 0 30 7
48 17 18 9 46 20 62 24 43 11 144 47 182 65 17 7 37 14 45 14 7 1 31 9 53 20
22 11 47 20 55 20 8 0 33 9 55 20 22 11 46 19 53 20 8 0 28 7 45 15 18 8 52
21 77 29 25 8 77 26 115 41 39 14 84 30 100 34 17 4 44 15 62 24 18 10 37 17
43 17 7 0 26 7 43 15 18 8 50 21 72 29 22 7 65 24 95 36 30 12 73 28 95 36 22
8 49 19 60 24 11 5 39 16 63 25 23 8 61 22 85 30 23 9 51 20 62 25 11 5 39 16
63 25 104 37 129 47 159 60 17 8 37 15 43 15 19 0 421 201 455 227 40 31 46
35 75 55 14 10 50 35 80 58 30 22 73 52 95 67 42 27 216 198 228 223 4 8 20
35 36 60 74 114 116 236 106 303 -13 94 -61 242 -89 277 -7 8 -17 26 -24 40
-18 38 -32 59 -94 135 -77 97 -177 185 -321 282 -67 45 -128 87 -135 93 -14
13 -257 136 -318 161 -22 9 -64 27 -94 39 -30 12 -74 31 -98 41 -23 10 -50 19
-60 19 -9 0 -39 8 -67 19 -27 10 -84 29 -125 41 -41 13 -100 31 -130 40 -132
42 -198 60 -216 60 -10 0 -50 8 -89 19 -264 72 -755 158 -1032 182 -65 5 -134
14 -153 19 -19 5 -93 14 -165 20 -71 6 -146 16 -165 21 -43 13 -917 21 -1045
9z"/>
</g>
</svg>
